<mxfile host="app.diagrams.net" modified="2024-08-06T02:50:10.276Z" agent="Mozilla/5.0 (X11; Ubuntu; Linux x86_64; rv:128.0) Gecko/20100101 Firefox/128.0" version="24.7.3" etag="59_K01u2V_WpmWYMlkbH" type="github">
  <diagram name="第 1 页" id="tZbdZ-ZDqYEMzEUsVfKP">
    <mxGraphModel>
      <root>
        <mxCell id="0" />
        <mxCell id="1" parent="0" />
      </root>
    </mxGraphModel>
  </diagram>
</mxfile>
